<mxfile host="app.diagrams.net" modified="2025-03-27T20:47:29.597Z" agent="Mozilla/5.0 (Macintosh; Intel Mac OS X 10.15; rv:136.0) Gecko/20100101 Firefox/136.0" etag="h-xRbkkAcdqd4YNfmy8p" version="22.1.17" type="device">
  <diagram name="Page-1" id="42789a77-a242-8287-6e28-9cd8cfd52e62">
    <mxGraphModel dx="1242" dy="794" grid="1" gridSize="10" guides="1" tooltips="1" connect="1" arrows="1" fold="1" page="1" pageScale="1" pageWidth="1100" pageHeight="850" background="none" math="0" shadow="0">
      <root>
        <mxCell id="0" />
        <mxCell id="1" parent="0" />
        <mxCell id="T7nrcUsK7K3uPAEwpSmB-4" value="" style="edgeStyle=orthogonalEdgeStyle;rounded=0;orthogonalLoop=1;jettySize=auto;html=1;" edge="1" parent="1" source="1ea317790d2ca983-1" target="T7nrcUsK7K3uPAEwpSmB-3">
          <mxGeometry relative="1" as="geometry" />
        </mxCell>
        <mxCell id="T7nrcUsK7K3uPAEwpSmB-7" value="All Applicatives are Functors" style="edgeLabel;html=1;align=center;verticalAlign=middle;resizable=0;points=[];" vertex="1" connectable="0" parent="T7nrcUsK7K3uPAEwpSmB-4">
          <mxGeometry x="0.05" y="2" relative="1" as="geometry">
            <mxPoint x="-10" y="2" as="offset" />
          </mxGeometry>
        </mxCell>
        <mxCell id="1ea317790d2ca983-1" value="Functor" style="ellipse;whiteSpace=wrap;html=1;rounded=0;shadow=1;comic=0;labelBackgroundColor=none;strokeWidth=1;fontFamily=Verdana;fontSize=12;align=center;" parent="1" vertex="1">
          <mxGeometry x="210" y="80" width="90" height="60" as="geometry" />
        </mxCell>
        <mxCell id="T7nrcUsK7K3uPAEwpSmB-6" value="" style="edgeStyle=orthogonalEdgeStyle;rounded=0;orthogonalLoop=1;jettySize=auto;html=1;" edge="1" parent="1" source="T7nrcUsK7K3uPAEwpSmB-3" target="T7nrcUsK7K3uPAEwpSmB-5">
          <mxGeometry relative="1" as="geometry" />
        </mxCell>
        <mxCell id="T7nrcUsK7K3uPAEwpSmB-8" value="All Monads are Applicatives" style="edgeLabel;html=1;align=center;verticalAlign=middle;resizable=0;points=[];" vertex="1" connectable="0" parent="T7nrcUsK7K3uPAEwpSmB-6">
          <mxGeometry x="0.025" y="3" relative="1" as="geometry">
            <mxPoint x="-2" y="3" as="offset" />
          </mxGeometry>
        </mxCell>
        <mxCell id="T7nrcUsK7K3uPAEwpSmB-3" value="Applicative" style="ellipse;whiteSpace=wrap;html=1;rounded=0;shadow=1;comic=0;labelBackgroundColor=none;strokeWidth=1;fontFamily=Verdana;fontSize=12;align=center;" vertex="1" parent="1">
          <mxGeometry x="490" y="80" width="90" height="60" as="geometry" />
        </mxCell>
        <mxCell id="T7nrcUsK7K3uPAEwpSmB-5" value="Monad" style="ellipse;whiteSpace=wrap;html=1;rounded=0;shadow=1;comic=0;labelBackgroundColor=none;strokeWidth=1;fontFamily=Verdana;fontSize=12;align=center;" vertex="1" parent="1">
          <mxGeometry x="760" y="80" width="90" height="60" as="geometry" />
        </mxCell>
        <mxCell id="T7nrcUsK7K3uPAEwpSmB-9" value="" style="endArrow=classic;html=1;rounded=0;strokeWidth=2;" edge="1" parent="1">
          <mxGeometry width="50" height="50" relative="1" as="geometry">
            <mxPoint x="233.75" y="200" as="sourcePoint" />
            <mxPoint x="838.75" y="200" as="targetPoint" />
          </mxGeometry>
        </mxCell>
        <mxCell id="T7nrcUsK7K3uPAEwpSmB-11" value="Restrictions and power" style="text;html=1;strokeColor=none;fillColor=none;align=center;verticalAlign=middle;whiteSpace=wrap;rounded=0;" vertex="1" parent="1">
          <mxGeometry x="431.25" y="170" width="205" height="30" as="geometry" />
        </mxCell>
        <mxCell id="T7nrcUsK7K3uPAEwpSmB-12" value="" style="endArrow=classic;html=1;rounded=0;strokeWidth=2;" edge="1" parent="1">
          <mxGeometry width="50" height="50" relative="1" as="geometry">
            <mxPoint x="836.25" y="260" as="sourcePoint" />
            <mxPoint x="231.25" y="260" as="targetPoint" />
          </mxGeometry>
        </mxCell>
        <mxCell id="T7nrcUsK7K3uPAEwpSmB-13" value="Preference" style="text;html=1;strokeColor=none;fillColor=none;align=center;verticalAlign=middle;whiteSpace=wrap;rounded=0;direction=west;" vertex="1" parent="1">
          <mxGeometry x="428.75" y="230" width="205" height="30" as="geometry" />
        </mxCell>
      </root>
    </mxGraphModel>
  </diagram>
</mxfile>
